<svg version="1.2" xmlns="http://www.w3.org/2000/svg" viewBox="0 0 512 512" width="100" height="100">
	<title>Red-globe-svg</title>
	<defs>
		<clipPath clipPathUnits="userSpaceOnUse" id="cp1">
			<path d="m0 0h512v512h-512z" />
		</clipPath>
	</defs>
	<style>
		.s0 { fill: #dc3941 } 
	</style>
	<g id="Clip-Path" clip-path="url(#cp1)">
		<g id="Layer">
			<path id="Layer" class="s0" d="m384 477.7l-0.4 0.2c-1.5 0.9-3.3 1.4-5 1.4c-3.4 0-6.8-1.8-8.6-5c-2.8-4.8-1.2-10.9 3.6-13.7l0.4-0.2c4.8-2.8 10.9-1.2 13.7 3.6c2.7 4.8 1.1 10.9-3.7 13.7z" />
			<path id="Layer" fill-rule="evenodd" class="s0" d="m507.2 305.5c-11.9 60.2-44.9 114-92.9 151.7c-4.3 3.4-10.6 2.7-14-1.7c-3.4-4.3-2.7-10.6 1.7-14c66.5-52.2 97.9-135.2 87.9-215.4c-1.4 5.8-4.2 11-8.3 15.1l-6.4 6.4c-1.9 1.9-4.5 3-7.1 3q-1.1 0-2.2-0.3c-3.3-0.7-6-3.1-7.2-6.3l-13.6-37.4q-0.3-0.9-0.9-1.6l-12.3-14.4c-1-1.1-2.4-1.8-3.9-1.8h-4.8l0.5 0.8c2.7 4 2.2 9.3-1.2 12.6c-13.2 13.2-29.4 23.6-46.9 30.1l-7.6 2.8c-4.7 1.7-10-0.3-12.3-4.8l-25.9-49.6c-0.7-1.4-1.1-3-1.1-4.6v-7l-14-13.3l-14.7-5.2c-5.2-1.8-7.9-7.5-6.1-12.8c1.8-5.2 7.5-7.9 12.7-6.1l16.8 5.9c1.3 0.5 2.6 1.2 3.6 2.2l18.6 17.8c2 1.9 3.1 4.5 3.1 7.2v8.8l20.7 39.6c12-4.5 23.2-11.2 33-19.6l-1.5-2.3c-3-4.4-3.3-10.1-0.8-14.8c2.6-4.7 7.5-7.7 12.8-7.7h15.1c7.3 0 14.3 3.2 19.1 8.8l12.3 14.4c1.9 2.3 3.5 4.9 4.5 7.8l6.9 19q0-0.2 0-0.3c0.1-7.4 3.4-14.5 8.9-19.4l4.2-3.8c-5.2-19.7-13-38.9-23.5-57.2c-39.7-68.7-108.8-109.9-182.3-116.9l-28.8 36.1c-1.2 1.5-2.7 2.6-4.5 3.2l-64.7 22.7l-14.7 35.6l14.9 20.8c8.2-13.2 22.8-21.5 38.7-21.5h5.7c5.5 0 10 4.4 10 10c0 5.5-4.5 10-10 10h-5.7c-10.7 0-20.3 6.7-24 16.8l-0.2 0.7c4.8-0.5 9.6-0.7 14-0.8c2.7-0.1 5.4-0.2 7.4-0.4c3.7-0.3 22.2-1.2 27.8 10.6c1 2.1 2 5.4 0.9 9.6q0.1 0.1 0.2 0.1c3.1 2.1 8.1 5.5 11.8 7.2c1.1-2.6 2.9-4.3 3.6-4.8c2.3-1.9 5.5-3.2 10.6-4.4c1.9-0.4 3.9-0.3 5.8 0.4c2.2 0.8 5.5 1.7 9 2.6c10.5 2.9 22.4 6.1 28.7 12.8c7 7.4 11.2 18.1 14.8 27.5c1.4 3.6 2.7 6.9 4 9.7q1.1 2.3 2.2 4.8c3.6 8.2 7.4 16.6 13.6 20.6c1.4 1 5.8 1.6 8.7 2.1c7.4 1.1 16.6 2.5 20.2 10.9c3.7 8.6-2.3 17.2-4.2 20c-4.5 6.5-10.3 11.9-15.9 17.1c-12.9 12.1-18.3 18.4-15.2 28.3c3.6 11.7 7 22.7-6.3 37.2q-1.2 1.3-2.2 2.4c-3.9 4.2-5.1 5.5-6.8 10.7c-2.1 6.8-5.5 10.5-8.1 13.5c-1.4 1.5-2.4 2.7-3.3 4.3c-0.6 1-0.9 2.5-1.3 4.4c-0.8 3.9-1.9 9.3-6.2 14.6c-6.9 8.5-21.9 21.9-36.4 21.9c-2.9 0-5.9-0.6-8.7-1.9c-5.4-2.5-12.1-8.6-21.1-35.2c-1.1-3.4-2.9-7.1-4.7-11.1c-5.5-12.2-11.8-26.1-7.3-40.1q0.4-1.2 0.8-2.4c3-9.1 4.3-13.2 1.2-20.7c-0.5-1.2-2.1-2.9-3.6-4.6c-3.1-3.4-7-7.7-8.5-13.8c-0.9-3.8-0.9-7.2-0.9-9.9c0-4.3-0.1-4.5-1.4-5.8c-2.8-2.5-5.5-2.3-14.1-0.2c-3.1 0.8-6.3 1.6-9.7 2c-21.2 2.5-41-6-53-22.8c-12.4-17.3-14.3-40.3-5-60.2c4.3-9 10.3-15.8 16.1-22.3q1.7-1.9 3.4-3.8c1.3-1.5 3.1-4.2 5.1-6.9c4.5-6.4 8.3-11.6 12.1-15.1l-27-37.8c-2-2.8-2.4-6.5-1.1-9.7l18.5-44.8c1.1-2.6 3.3-4.7 5.9-5.6l66.3-23.2l17.8-22.4c-39.2 0.4-78.9 10.5-115.2 31.5c-9.9 5.7-19.2 12.1-28 19c8.1 5 14.5 12.4 18.2 21.4c6.3 15.2 3.1 32.8-8.1 44.8l-11 11.8l-27.2 47.5c-0.7 1.2-1.7 2.3-2.9 3.1l-17.5 12.6l12.2 18c1.9 2.8 2.3 6.4 1 9.5c-1.4 3.2-4.2 5.4-7.6 6c-0.1 0-8.5 1.4-16.9 2.6c-8.9 1.4-14.3 2.1-17.9 2.1c-4 0-5.9-0.9-7.9-2.8q-1.1-1-1.9-2.2c-0.4-0.4-1-1.1-2.1-2q-0.7 13.6 0.1 27.3l25.5-8.3c3.1-1 6.5-0.4 9.1 1.6l43.6 33.1l22.5 4.4c8.8 1.7 16.4 7.1 20.9 14.8c4.5 7.7 5.5 16.9 2.7 25.4c-0.7 2.3-0.7 4.6 0 6.9l3.2 9.8c5.3 16.3-3.7 33.9-20 39.2l-4.3 1.4l-9 46.7c63.1 47.4 147.6 61 225.6 31c5.2-2 11 0.6 12.9 5.8c2 5.1-0.5 10.9-5.7 12.9c-29.3 11.3-60.3 16.9-91.4 16.9c-28.6 0-57.2-4.8-84.6-14.3c-57.8-20.2-106.5-60.6-137.2-113.7c-34.2-59.2-43.3-128.2-25.6-194.2c17.7-66 60.1-121.2 119.3-155.4c59.2-34.2 128.2-43.3 194.2-25.6c66 17.7 121.2 60.1 155.4 119.3c31 53.7 41.4 116.7 29.5 177.4zm-484.5-14.8c4.2 28.6 13.7 56.8 29 83.3c12.5 21.7 28 40.7 45.6 56.8l8-41.7c0.7-3.6 3.2-6.5 6.7-7.6l9.9-3.3c5.9-1.9 9.1-8.1 7.2-14l-3.2-9.7c-2.1-6.3-2-13 0-19.3c1-3.1 0.7-6.3-0.9-9.1c-1.7-2.8-4.3-4.7-7.5-5.3l-24.9-4.8c-1.5-0.3-2.9-1-4.1-1.9l-41.2-31.4zm87.2-191c-3-7.1-9-12.5-16.2-14.8c-38.1 36.1-62.4 83.5-70.5 133.8c4.9 4.3 8.2 7.2 10.6 9.4q1 0.9 1.9 1.7c3-0.3 7.6-0.9 12.7-1.7l-8.9-13c-3-4.5-1.9-10.6 2.5-13.8l23.7-16.9l26.7-46.7q0.6-1 1.4-1.8l11.8-12.6c5.9-6.4 7.5-15.6 4.3-23.6zm67.3 90.6c-2.3 3.2-4.5 6.2-6.4 8.5q-1.8 2-3.5 4c-5.3 5.9-9.9 11.1-13 17.5c-6.2 13.3-5 28.7 3.1 40.1c7.9 10.9 20.4 16.2 34.5 14.5c2.2-0.2 4.6-0.9 7.3-1.5c8.5-2.1 21.4-5.3 32.5 5c7.8 7.4 7.8 15.3 7.7 20.5c0 2 0 3.6 0.4 5.1c0.3 1.2 2.1 3.2 3.8 5c2.5 2.9 5.4 6.1 7.3 10.4c5.9 14.4 2.7 24.2-0.7 34.6q-0.4 1.2-0.8 2.3c-2.1 6.7 2.3 16.4 6.6 25.7c1.9 4.3 3.9 8.7 5.3 13c5.9 17.3 9.7 22.3 10.8 23.5c0.9 0 3.7-0.4 8.4-3.4c5-3.2 10-7.9 12.6-11.1c1.2-1.5 1.5-2.9 2.1-5.9c0.6-3 1.4-6.7 3.6-10.6c1.9-3.3 4-5.6 5.6-7.4c2.1-2.4 3.2-3.6 4.1-6.4c3-9.5 6.6-13.4 11.3-18.3q0.9-1 2-2.2c5.4-5.8 5.2-7 1.9-17.8c-7.1-22.9 8.3-37.3 20.7-48.8c4.8-4.5 9.4-8.8 12.7-13.3c-0.8-0.1-1.5-0.2-2.2-0.3c-5.4-0.9-11.6-1.8-16.6-5.1c-11.1-7.3-16.4-18.9-21-29.2q-1-2.3-2-4.5c-1.6-3.4-3-7.1-4.5-11c-3-7.7-6.4-16.4-10.7-21c-2.4-2.6-13.5-5.6-19.4-7.2q-2.6-0.7-5-1.3c-0.7 1.3-1.6 2.4-2.7 3.2q-0.2 0.2-0.4 0.5c-1.8 1.8-6 6.1-13.6 5.6c-8.3-0.5-17.2-6.4-25-11.6c-2.7-1.9-5.3-3.6-7.2-4.6c-2.8-1.5-4.7-4.2-5.2-7.3c-0.3-1.7-0.1-3.5 0.6-5.1c-1.4-0.2-2.9-0.2-4.3-0.1c-2.5 0.2-5.4 0.4-8.4 0.5c-7.6 0.2-17.9 0.6-22.4 3.1c-2.2 1.4-7.2 8.5-9.9 12.4z" />
			<path id="Layer" fill-rule="evenodd" class="s0" d="m409.9 349.7l-11.7 39.6c-6.3 21.1-14 31.8-24.2 33.4q-1.2 0.2-2.6 0.2c-4.9 0-11.1-2.1-17-10.6c-8.3-11.8-2.4-25.7 0.8-33.2l0.1-0.2c0.8-1.9 0.7-2.9 0.2-5.9c-0.5-3.4-1.2-8.1 0.7-14.1c3-9.6 10.9-13.4 16.7-16.2c2.4-1.1 4.9-2.3 5.8-3.5c1.8-1.9 3.4-5.6 5-9c1-2.1 2-4.2 3.1-6.3c1.9-3.6 5.9-5.6 9.9-5.1c4.1 0.5 7.5 3.4 8.5 7.3l4.8 18.2c0.5 1.8 0.5 3.6-0.1 5.4zm-23.3 8.4c-1.8 1-3.5 1.9-5 2.6c-3.6 1.7-5.9 2.9-6.3 4.2c-0.5 1.5-0.4 2.6 0 5.2c0.6 4 1.4 9.5-1.6 16.6l-0.1 0.3c-1.9 4.4-4.8 11.1-2.9 13.8q0.4 0.5 0.7 0.9c1.6-2.3 4.4-7.3 7.6-18.1z" />
			<path id="Layer" class="s0" d="m276.2 131.6c-1.5 4.1-5.4 6.7-9.5 6.7q-1.6 0-3.3-0.6l-0.7-0.2c-5.2-1.8-7.9-7.5-6.1-12.8c1.8-5.2 7.5-7.9 12.8-6.1l0.6 0.3c5.2 1.8 8 7.5 6.2 12.7z" />
		</g>
	</g>
</svg>