<svg width="100" height="100" viewBox="0 0 100 100" fill="none" xmlns="http://www.w3.org/2000/svg">
<g clip-path="url(#clip0_3502_41091)">
<path d="M50.0473 100C49.5712 100 49.0952 99.8268 48.7206 99.4804L20.0356 72.9416C20.0165 72.9248 19.9982 72.9072 19.9806 72.8889C11.882 64.7911 7.42188 54.0787 7.42188 42.7231C7.42188 31.3675 11.882 20.655 19.9806 12.5572C27.9358 4.4998 38.5765 0.0366007 49.9344 -2.0369e-05C61.3861 -0.0366415 72.1832 4.42274 80.3185 12.5572C80.3215 12.5603 80.3246 12.5625 80.3276 12.5656C88.3324 20.6741 92.7261 31.4224 92.6979 42.8306C92.6697 54.2602 88.2011 65.0078 80.1132 73.0934C80.0941 73.1132 80.0735 73.1323 80.0537 73.1514L51.368 99.4858C50.9941 99.8291 50.5211 100 50.0473 100ZM22.7158 70.1004L50.0519 95.3911L77.3804 70.3026C92.4789 55.1758 92.5568 30.5191 77.552 15.3145C70.1889 7.95439 60.4355 3.90623 50.0755 3.90623C50.032 3.90623 49.9901 3.90623 49.9474 3.90623C39.637 3.9398 29.9789 7.98948 22.7516 15.3106C15.3816 22.6791 11.3281 32.4112 11.3281 42.7231C11.3281 53.022 15.3725 62.7441 22.7158 70.1004Z" fill="#DC3941"/>
<path d="M70.9961 25.0336C70.8694 25.0336 70.7405 25.0214 70.6154 24.9962C70.4903 24.971 70.3674 24.9336 70.2499 24.8848C70.1309 24.836 70.018 24.7757 69.912 24.7047C69.8051 24.633 69.7052 24.5506 69.6152 24.4606C69.5259 24.3713 69.4435 24.2714 69.3733 24.1638C69.3031 24.0585 69.2421 23.9456 69.1933 23.8281C69.1444 23.7091 69.1078 23.5863 69.0819 23.4627C69.0567 23.336 69.043 23.2071 69.043 23.0804C69.043 22.953 69.0567 22.8241 69.0819 22.699C69.1078 22.5746 69.1444 22.451 69.1933 22.3343C69.2421 22.2145 69.3031 22.1016 69.3733 21.9963C69.4435 21.8887 69.5259 21.7888 69.6152 21.6995C69.9783 21.3356 70.4826 21.1273 70.9961 21.1273C71.5096 21.1273 72.0139 21.3356 72.377 21.6995C72.467 21.7888 72.5487 21.8887 72.6212 21.9963C72.6913 22.1016 72.7516 22.2145 72.8004 22.3343C72.8493 22.451 72.8867 22.5746 72.9118 22.699C72.9378 22.8241 72.9492 22.953 72.9492 23.0804C72.9492 23.2071 72.9378 23.336 72.9118 23.4627C72.8867 23.5863 72.8493 23.7091 72.8004 23.8281C72.7516 23.9456 72.6913 24.0585 72.6212 24.1638C72.5487 24.2714 72.467 24.3713 72.377 24.4606C72.287 24.5506 72.1878 24.633 72.0802 24.7047C71.9749 24.7757 71.8613 24.836 71.7438 24.8848C71.6248 24.9336 71.5019 24.971 71.3791 24.9962C71.2517 25.0214 71.1227 25.0336 70.9961 25.0336Z" fill="#DC3941"/>
<path d="M50.0589 73.8007C33.0591 73.8007 19.2285 59.9716 19.2285 42.9733C19.2285 25.975 33.0591 12.146 50.0589 12.146C55.6123 12.146 61.0567 13.6391 65.8044 16.4642C66.7314 17.0158 67.0358 18.2144 66.4842 19.1414C65.9326 20.0684 64.734 20.3728 63.8071 19.8204C59.6635 17.3553 54.9097 16.0522 50.0589 16.0522C35.2129 16.0522 23.1348 28.1288 23.1348 42.9733C23.1348 57.8178 35.2129 69.8944 50.0589 69.8944C64.9049 69.8944 76.9838 57.8178 76.9838 42.9733C76.9838 38.5956 75.9096 34.2514 73.8786 30.4092C73.3743 29.4563 73.739 28.2745 74.6919 27.7702C75.6456 27.2659 76.8274 27.6299 77.3317 28.5835C79.6594 32.9857 80.89 37.9616 80.89 42.9733C80.89 59.9716 67.0595 73.8007 50.0589 73.8007Z" fill="#DC3941"/>
<path d="M47.7252 58.0322C47.2255 58.0322 46.7258 57.8415 46.3443 57.46L32.3398 43.457C31.9736 43.0908 31.7676 42.5942 31.7676 42.0761C31.7676 41.5581 31.9736 41.0606 32.3405 40.6944L38.5051 34.5306C39.2673 33.7685 40.504 33.7685 41.2669 34.5306L47.726 40.9897L58.8542 29.863C59.6164 29.1 60.8531 29.1 61.6161 29.863L67.7806 36.0268C68.1468 36.393 68.3528 36.8897 68.3528 37.4077C68.3528 37.9257 68.1468 38.4224 67.7806 38.7886L49.1069 57.46C48.7254 57.8415 48.2249 58.0322 47.7252 58.0322ZM36.4833 42.0754L47.7252 53.3173L63.6371 37.4077L60.2344 34.0057L49.1069 45.1325C48.344 45.8954 47.1072 45.8954 46.3451 45.1325L39.8853 38.6742L36.4833 42.0754Z" fill="#DC3941"/>
</g>
<defs>
<clipPath id="clip0_3502_41091">
<rect width="100" height="100" fill="white"/>
</clipPath>
</defs>
</svg>
